# xmcd CD database file
#
# Track frame offsets:
#	150
#	15747
#	36595
#	60354
#	81747
#	88688
#	116892
#	131766
#	149776
#	158107
#
# Disc length: 2424 seconds
#
# Revision: 2
# Processed by: cddbd v1.5.1PL0 Copyright (c) Steve Scherf et al.
# Submitted via: CDex 1.51
#
DISCID=9509760a
DTITLE=Michael Columbia - These are Colored Bars
DYEAR=2004
DGENRE=Jazz
TTITLE0=Mouse
TTITLE1=Dupress
TTITLE2=Baseball Museum
TTITLE3=Hobart
TTITLE4=Mr Bulgia
TTITLE5=Thank You Jeremy
TTITLE6=Unknown Shape
TTITLE7=Special Export
TTITLE8=Martian Song
TTITLE9=Buzz Aldrin
EXTD=YEAR: 2004
EXTT0=
EXTT1=
EXTT2=
EXTT3=
EXTT4=
EXTT5=
EXTT6=
EXTT7=
EXTT8=
EXTT9=
PLAYORDER=
